<svg xmlns="http://www.w3.org/2000/svg" width="260" height="40" fill="none"><g clip-path="url(#a)"><g fill="#32825A" clip-path="url(#b)"><path d="M192.198 7.72c-7.955 0-13.374 4.196-13.374 11.844 0 7.647 5.375 11.931 13.374 11.931 7.999 0 13.33-4.545 13.33-11.931 0-7.387-5.419-11.844-13.33-11.844Zm1.748 16.608c-.349.481-.918.699-1.748.699s-1.442-.262-1.835-.742c-.569-.699-.786-2.273-.786-4.721s.175-3.889.742-4.633c.437-.525 1.049-.742 1.879-.742.786 0 1.355.175 1.792.742.525.7.786 2.228.786 4.633 0 2.404-.22 4.02-.83 4.764ZM65.816 21.237c.101-4.23-.95-7.51-3.116-9.802-2.228-2.36-5.638-3.715-10.14-3.715-4.064 0-7.342 1.137-9.57 3.103-2.36 2.055-3.584 5.026-3.584 8.74 0 3.716 1.223 6.73 3.54 8.786 2.228 2.009 5.507 3.146 9.703 3.146 6.534 0 11.16-2.367 12.702-6.853l.006-.017c.101-.299.191-.608.266-.925l.07-.285a.395.395 0 0 0-.384-.485h-9.286a.39.39 0 0 0-.38.298c-.384 1.564-1.218 2.455-2.904 2.455-2.317 0-3.103-1.486-3.103-4.064h15.79c.212 0 .388-.17.392-.382h-.002ZM49.634 16.81c.088-.961.261-1.704.656-2.228.525-.699 1.311-1.05 2.449-1.05 1.137 0 1.791.305 2.272.962.393.525.613 1.31.657 2.316h-6.034ZM89.84 9.556c-1.354-1.267-3.234-1.836-5.767-1.836-3.454 0-5.624 1.399-6.79 3.491-.065.119-.248.07-.248-.066V.553a.395.395 0 0 0-.395-.395h-9.305a.395.395 0 0 0-.395.395v29.803c0 .217.175.395.395.395h9.525a.395.395 0 0 0 .395-.395v-11.8c0-2.534 1.093-3.41 2.36-3.41.7 0 1.135.088 1.53.48.481.482.57 1.18.57 2.405v12.322c0 .218.175.396.395.396h9.48a.395.395 0 0 0 .396-.396V16.938c0-3.41-.569-5.856-2.14-7.387l-.005.005ZM105.924 7.72c-3.191 0-6.642.437-8.959 1.792-2.013 1.216-3.142 3.076-3.227 6.124a.397.397 0 0 0 .375.408l9.033.48a.393.393 0 0 0 .415-.383c.029-2.152.966-2.697 2.409-2.697 1.006 0 1.486.132 1.879.569.437.437.525 1.137.525 1.967v.569l-5.9.962c-5.419.83-9.615 2.011-9.615 6.993 0 4.501 3.41 6.993 8.217 6.993 3.366 0 5.922-1.157 7.377-3.109.082-.107.251-.052.251.081v1.889c0 .217.177.395.395.395h8.671a.396.396 0 0 0 .395-.395V15.807c0-6.25-4.545-8.085-12.237-8.085l-.004-.002Zm2.404 14.729c0 2.622-1.792 3.495-3.452 3.495-1.442 0-2.184-.656-2.184-1.791 0-1.399 1.179-1.792 2.534-2.055l3.102-.657v1.008ZM137.553 8.464h-.119c-3.592.082-5.886.887-7.171 4.02-.055.137-.257.095-.257-.05V8.873a.406.406 0 0 0-.406-.406h-9.108a.406.406 0 0 0-.406.406v21.474c0 .224.182.406.406.406h9.501a.407.407 0 0 0 .406-.406v-6.324c0-4.938 2.229-6.642 6.076-6.642.369 0 .737.018 1.047.044a.405.405 0 0 0 .437-.406V8.873a.406.406 0 0 0-.406-.406v-.003ZM170.345 7.72c-2.361 0-4.153.569-5.507 1.704-.835.634-1.452 1.451-1.919 2.382a.134.134 0 0 1-.244-.01c-1.052-2.73-3.241-4.076-6.493-4.076-2.36 0-4.108.613-5.331 1.792a6.261 6.261 0 0 0-1.366 1.67c-.068.121-.25.075-.25-.063V8.855a.392.392 0 0 0-.391-.39h-8.965a.392.392 0 0 0-.391.39v21.507c0 .215.176.39.391.39h9.226a.391.391 0 0 0 .391-.39V18.56c0-1.31.218-2.229.613-2.71.393-.524.962-.698 1.574-.698.569 0 .962 0 1.355.394.525.48.656 1.266.656 2.36v12.458c0 .215.176.391.391.391h9.183a.392.392 0 0 0 .391-.39V18.43c0-1.223.217-2.097.656-2.666.437-.48 1.006-.613 1.616-.613.525 0 .918.088 1.311.394.481.436.657 1.179.657 2.316v12.502c0 .215.175.391.39.391h9.183a.392.392 0 0 0 .391-.39V16.901c0-6.424-2.622-9.178-7.516-9.178l-.002-.004ZM229.521 9.512c-1.31-1.223-3.19-1.792-5.682-1.792-3.474 0-5.713 1.344-6.897 3.478-.072.132-.27.079-.27-.07V8.86a.397.397 0 0 0-.397-.398h-9.216a.396.396 0 0 0-.395.395v21.496c0 .22.178.398.397.398h9.521c.22 0 .397-.178.397-.398V18.6c0-2.622 1.094-3.452 2.361-3.452.7 0 1.135.088 1.53.437.481.48.525 1.267.525 2.492v12.276c0 .22.178.398.397.398h9.521c.22 0 .397-.178.397-.398V16.94c0-3.41-.568-5.9-2.184-7.43l-.005.002ZM258.588 8.464h-10.087v.007l-.004-.007-2.446 10.368c-.097.407-.672.407-.769 0l-1.416-6.005c-.292-1.335-.61-2.707-.953-4.064a.394.394 0 0 0-.382-.299H231.79a.395.395 0 0 0-.369.536l8.124 21.373a1.035 1.035 0 0 1-.966 1.403h-3.81a.4.4 0 0 0-.395.398v6.738c0 .218.176.395.395.395h4.8-.004.063c8.076-.057 10.232-3.13 12.9-11.084l6.442-19.238a.395.395 0 0 0-.373-.52h-.009ZM29.424 15.262l-.011-.01a8.9 8.9 0 0 0-6.559-2.854 8.9 8.9 0 0 0-6.334 2.619l-.123.123-.123-.123a8.894 8.894 0 0 0-6.335-2.62 8.897 8.897 0 0 0-6.334 2.622c-.08.079-.156.162-.235.246-3.167 3.414-3.164 8.763.002 12.18.077.08.154.164.233.243l10.822 10.823a2.769 2.769 0 0 0 1.97.814c.744 0 1.445-.29 1.97-.814l10.82-10.823c.079-.08.153-.158.235-.248a8.918 8.918 0 0 0 2.384-6.089 8.932 8.932 0 0 0-2.384-6.088h.002Zm-1.869 10.456-.015.016a4.851 4.851 0 0 1-.147.153L16.57 36.71a.244.244 0 0 1-.347 0L5.401 25.887c-.055-.054-.106-.11-.158-.166l-.01-.011c-2.267-2.446-2.265-6.278.003-8.724l.009-.009a6.375 6.375 0 0 1 4.697-2.044c1.716 0 3.328.665 4.538 1.878l1.765 1.765a.216.216 0 0 0 .156.064.225.225 0 0 0 .156-.064l1.765-1.765a6.375 6.375 0 0 1 4.539-1.878c1.717 0 3.329.668 4.538 1.878.051.05.097.1.145.151l.014.013.01.011a6.388 6.388 0 0 1 1.709 4.36 6.398 6.398 0 0 1-1.715 4.368l-.007.004Z"/><path d="m29.428 2.865-.011-.01A8.9 8.9 0 0 0 22.859 0a8.9 8.9 0 0 0-6.335 2.618l-.123.123-.123-.123A8.894 8.894 0 0 0 9.943 0a8.897 8.897 0 0 0-6.335 2.622c-.079.079-.155.162-.234.246C.207 6.282.21 11.63 3.376 15.048c.077.08.153.164.232.243l10.823 10.822a2.769 2.769 0 0 0 1.97.815c.744 0 1.445-.29 1.97-.815l10.82-10.822c.079-.08.153-.158.235-.248a8.918 8.918 0 0 0 2.384-6.089 8.932 8.932 0 0 0-2.384-6.089h.002Zm-1.869 10.456-.015.016a4.851 4.851 0 0 1-.147.153L16.574 24.313a.244.244 0 0 1-.347 0L5.405 13.49c-.055-.055-.106-.11-.159-.167l-.008-.01c-2.268-2.447-2.266-6.278.002-8.724l.009-.009a6.375 6.375 0 0 1 4.697-2.044c1.716 0 3.328.665 4.538 1.877l1.765 1.766a.216.216 0 0 0 .156.063.225.225 0 0 0 .156-.063l1.765-1.766a6.375 6.375 0 0 1 4.539-1.877c1.717 0 3.329.668 4.538 1.877.05.05.097.101.145.152l.014.013.01.011a6.388 6.388 0 0 1 1.709 4.36 6.399 6.399 0 0 1-1.715 4.368l-.007.004Z"/></g></g><defs><clipPath id="a"><path fill="#fff" d="M0 0h260v40H0z"/></clipPath><clipPath id="b"><path fill="#fff" d="M0 0h260v39.589H0z"/></clipPath></defs></svg>