<svg xmlns="http://www.w3.org/2000/svg" width="70" height="70" fill="none"><g fill="#32825A" clip-path="url(#a)"><path d="m58.602 27.168-.02-.02a15.842 15.842 0 0 0-11.674-5.08c-4.264 0-8.27 1.656-11.276 4.662l-.218.219-.22-.219a15.832 15.832 0 0 0-11.275-4.663 15.836 15.836 0 0 0-11.276 4.667c-.14.14-.277.29-.418.438-5.636 6.077-5.632 15.598.004 21.68.137.144.274.293.414.434L31.908 68.55A4.928 4.928 0 0 0 35.414 70a4.928 4.928 0 0 0 3.505-1.45L58.18 49.286c.14-.141.274-.282.418-.442 2.74-2.951 4.245-6.8 4.245-10.838a15.9 15.9 0 0 0-4.245-10.838h.004ZM55.276 45.78l-.027.027a8.673 8.673 0 0 1-.262.274L35.722 65.345a.435.435 0 0 1-.617 0L15.84 46.081c-.097-.098-.187-.196-.281-.298l-.016-.019c-4.037-4.354-4.033-11.174.004-15.528l.016-.016c.094-.101.183-.2.281-.297a11.348 11.348 0 0 1 8.079-3.341c3.056 0 5.925 1.184 8.079 3.341l3.142 3.143a.383.383 0 0 0 .278.113.4.4 0 0 0 .277-.114l3.142-3.142a11.348 11.348 0 0 1 8.079-3.341c3.056 0 5.925 1.188 8.079 3.341.09.09.172.18.258.27l.023.023.02.02a11.372 11.372 0 0 1 3.04 7.762 11.39 11.39 0 0 1-3.052 7.774l-.012.008Z"/><path d="m58.61 5.1-.02-.02A15.842 15.842 0 0 0 46.916 0c-4.264 0-8.27 1.657-11.276 4.663l-.219.219-.218-.22A15.832 15.832 0 0 0 23.927 0 15.836 15.836 0 0 0 12.65 4.667c-.14.14-.277.289-.418.437-5.636 6.078-5.632 15.599.004 21.68.136.145.273.294.414.434l19.265 19.265a4.928 4.928 0 0 0 3.505 1.45 4.928 4.928 0 0 0 3.506-1.45l19.261-19.265c.14-.14.274-.281.418-.441 2.74-2.951 4.245-6.801 4.245-10.839A15.9 15.9 0 0 0 58.606 5.1h.004Zm-3.326 18.612-.027.028a8.673 8.673 0 0 1-.262.273L35.73 43.278a.435.435 0 0 1-.617 0L15.848 24.013c-.098-.097-.188-.195-.281-.297l-.016-.02c-4.037-4.353-4.033-11.173.004-15.527l.016-.016c.093-.102.183-.2.281-.297a11.348 11.348 0 0 1 8.079-3.342c3.056 0 5.925 1.184 8.078 3.342l3.143 3.142a.383.383 0 0 0 .277.114.4.4 0 0 0 .278-.114l3.142-3.142a11.349 11.349 0 0 1 8.079-3.342c3.056 0 5.925 1.188 8.079 3.342.09.09.172.18.258.27l.023.023.02.02a11.372 11.372 0 0 1 3.04 7.762 11.39 11.39 0 0 1-3.052 7.774l-.012.007Z"/></g><defs><clipPath id="a"><path fill="#fff" d="M0 0h70v70H0z"/></clipPath></defs></svg>