<svg width="300" height="31" viewBox="0 0 300 31" fill="none" xmlns="http://www.w3.org/2000/svg">
<g clip-path="url(#clip0_2154_1095)">
<path fill-rule="evenodd" clip-rule="evenodd" d="M5.11349 9.88379H12.136C18.072 9.88379 18.072 7.40081 18.072 6.58741C18.072 5.85951 18.072 3.65017 12.1696 3.65017H5.11349V9.88379ZM5.11349 20.6398H13.4855C15.5072 20.6398 17.045 20.286 18.0655 19.588C19.0449 18.9188 19.5211 18.0253 19.5211 16.8602C19.5211 16.0063 19.5211 13.4036 12.8275 13.4036H5.11349V20.6398ZM13.716 24.292H0V0H14.0115C16.8502 0 19.1315 0.61994 20.7873 1.847C22.376 2.99923 23.1844 4.51702 23.1844 6.36294C23.1844 8.48998 22.0914 10.1093 19.9334 11.1835C20.9962 11.5758 21.8165 11.9809 22.4226 12.4084C23.8944 13.5275 24.6335 15.0443 24.6335 16.9265C24.6335 19.0504 23.6693 20.8118 21.7634 22.1576C19.7841 23.5727 17.0742 24.292 13.716 24.292Z" fill="#317AA6"/>
<path fill-rule="evenodd" clip-rule="evenodd" d="M31.3772 24.292H26.3919V8.63798e-07H31.3772V24.292Z" fill="#317AA6"/>
<path fill-rule="evenodd" clip-rule="evenodd" d="M47.0653 15.9883C46.2595 16.2249 44.691 16.5125 41.4342 16.8298C38.547 17.1197 37.0808 17.8859 37.0808 19.1031C37.0808 20.1613 37.4558 21.5675 40.665 21.5675C42.364 21.5675 43.8948 21.1929 45.2134 20.4637C46.4599 19.775 47.0653 18.9885 47.0653 18.0705V15.9883ZM39.7149 24.8702C37.5711 24.8702 35.7849 24.383 34.4071 23.4279C32.9796 22.4324 32.2578 21.1206 32.2578 19.5213C32.2578 16.1507 34.6849 14.2106 39.4714 13.7575L45.6324 13.1738C46.6915 13.0719 47.1655 12.5985 47.1655 11.6455C47.1655 11.0809 47.1655 9.3744 42.4017 9.3744C40.6564 9.3744 39.3982 9.71294 38.6635 10.3794C38.2229 10.7955 37.9179 11.4258 37.7628 12.2473L37.6906 12.6325H33.3491L33.3706 12.1433C33.5333 8.11253 36.7825 6.07275 43.0244 6.07275C44.8601 6.07275 46.5353 6.33065 48.0025 6.84324C50.5192 7.71243 51.7947 9.20672 51.7947 11.2783V21.0347C51.7947 21.2714 51.7947 21.5675 52.5262 21.5675C52.6812 21.5675 53.0034 21.5367 53.6648 21.386L54.252 21.2523V24.2992L53.8685 24.3746C52.385 24.6717 51.9455 24.7099 51.7397 24.7099C50.0958 24.7099 48.9506 24.4054 48.2418 23.7834C47.8701 23.465 47.6017 23.0383 47.4446 22.5099C45.263 24.0784 42.6667 24.8702 39.7149 24.8702Z" fill="#317AA6"/>
<path fill-rule="evenodd" clip-rule="evenodd" d="M63.8986 24.8702C60.7097 24.8702 58.1128 24.0276 56.1773 22.3616C54.3157 20.7242 53.3718 18.5637 53.3718 15.9383C53.3718 13.0403 54.2983 10.692 56.1285 8.95274C58.1052 7.04371 60.9661 6.07275 64.6252 6.07275C67.4448 6.07275 69.6769 6.77737 71.2572 8.16111C72.5802 9.33689 73.3436 10.8522 73.5326 12.6647L73.5859 13.1836H69.0197L68.9416 12.8048C68.4833 10.6273 66.8866 9.57033 64.0638 9.57033C62.0674 9.57033 60.6174 10.1879 59.6258 11.4507C58.7917 12.4811 58.3691 13.8309 58.3691 15.4556C58.3691 19.5006 60.2231 21.4681 64.0312 21.4681C65.2357 21.4681 66.261 21.155 67.1657 20.512C68.0585 19.8732 68.6397 18.9934 68.947 17.8251L69.0382 17.4696H73.6065L73.5283 18.0066C73.2709 19.7904 72.4638 21.3079 71.1323 22.5134C69.3934 24.0785 66.9593 24.8702 63.8986 24.8702Z" fill="#317AA6"/>
<path fill-rule="evenodd" clip-rule="evenodd" d="M94.7201 24.292H88.6561L88.5121 24.1135L81.8979 15.8794L79.3639 17.6323V24.292H74.7787V8.63798e-07H79.3639V13.0395L88.1382 6.43641L88.2692 6.33808H94.6405L85.3979 13.2331L94.7201 24.292Z" fill="#317AA6"/>
<path fill-rule="evenodd" clip-rule="evenodd" d="M100.699 11.0028H108.398C112.242 11.0028 114.108 9.78432 114.108 7.2733C114.108 6.42162 114.108 3.83659 108.561 3.83659H100.699V11.0028ZM100.699 24.5523H95.6365V0.171416H109.8C112.65 0.171416 114.959 0.824647 116.666 2.1118C118.413 3.43006 119.301 5.157 119.301 7.24111C119.301 9.24264 118.557 10.9427 117.092 12.2921C115.403 13.8667 112.949 14.669 109.8 14.669H100.699V24.5523Z" fill="#317AA6"/>
<path fill-rule="evenodd" clip-rule="evenodd" d="M123.434 13.6573H134.729C134.313 10.9087 132.46 9.56947 129.08 9.56947C127.488 9.56947 126.168 10.0311 125.042 10.9745C124.09 11.7768 123.561 12.6587 123.434 13.6573ZM128.854 24.8702C125.707 24.8702 123.147 24.0244 121.244 22.3615C119.405 20.724 118.475 18.5654 118.475 15.9378C118.475 13.0439 119.389 10.6933 121.192 8.95185C123.141 7.04165 125.961 6.07275 129.57 6.07275C132.818 6.07275 135.35 7.02679 137.087 8.90515C138.748 10.7082 139.59 13.2286 139.59 16.391V16.8643H123.418C123.594 19.962 125.548 21.468 129.373 21.468C130.871 21.468 132.174 21.0965 133.238 20.3589C134.087 19.7594 134.547 19.1587 134.598 18.5781L134.638 18.1431H139.392L139.289 18.7013C139.168 19.3698 138.812 20.1318 138.234 20.9521C137.429 22.0897 136.376 23.0002 135.099 23.6519C133.516 24.4606 131.417 24.8702 128.854 24.8702Z" fill="#317AA6"/>
<path fill-rule="evenodd" clip-rule="evenodd" d="M150.72 9.47712C148.499 9.47712 146.909 10.1937 145.855 11.6694C145.107 12.7242 144.726 14 144.726 15.4715C144.726 16.9408 145.107 18.2187 145.855 19.2745C146.909 20.7481 148.5 21.4637 150.72 21.4637C152.96 21.4637 154.563 20.7481 155.618 19.2745C156.365 18.2187 156.746 16.9387 156.746 15.4715C156.746 14.0043 156.365 12.7242 155.616 11.6694C154.563 10.1958 152.963 9.47712 150.72 9.47712ZM150.72 24.8702C147.272 24.8702 144.515 23.8783 142.526 21.9145C140.771 20.1729 139.885 18.0061 139.885 15.4715C139.885 12.9368 140.771 10.77 142.522 9.02527C144.515 7.06258 147.272 6.07275 150.72 6.07275C154.188 6.07275 156.958 7.06258 158.947 9.02313C160.701 10.77 161.587 12.9411 161.587 15.4715C161.587 18.0061 160.701 20.1729 158.952 21.9145C156.958 23.8783 154.188 24.8702 150.72 24.8702Z" fill="#317AA6"/>
<path fill-rule="evenodd" clip-rule="evenodd" d="M173.017 9.63241C169.307 9.63241 167.501 11.8313 167.501 16.3571C167.501 18.2244 168.134 19.5819 169.432 20.5129C170.452 21.2274 171.694 21.5888 173.117 21.5888C174.949 21.5888 176.308 21.0278 177.269 19.8836C178.174 18.8247 178.635 17.3563 178.635 15.5136C178.635 11.5562 176.796 9.63241 173.017 9.63241ZM167.664 31.2333H162.934V6.60492H167.436V8.43271C169.165 6.89391 171.271 6.11758 173.707 6.11758C176.706 6.11758 179.124 6.98349 180.895 8.68759C182.597 10.3288 183.463 12.4722 183.463 15.0625C183.463 17.6239 182.734 19.8304 181.295 21.6165C179.479 23.8688 176.75 25.0077 173.182 25.0077C170.838 25.0077 168.991 24.451 167.664 23.3537V31.2333Z" fill="#317AA6"/>
<path fill-rule="evenodd" clip-rule="evenodd" d="M190.032 24.292H185.046V8.63798e-07H190.032V24.292Z" fill="#317AA6"/>
<path fill-rule="evenodd" clip-rule="evenodd" d="M196.457 13.6586H207.752C207.334 10.9124 205.481 9.57121 202.103 9.57121C200.511 9.57121 199.193 10.0328 198.065 10.9761C197.112 11.7783 196.581 12.6601 196.457 13.6586ZM201.876 24.8702C198.73 24.8702 196.17 24.0244 194.266 22.3617C192.427 20.7224 191.497 18.5619 191.497 15.9388C191.497 13.0453 192.413 10.6949 194.215 8.95364C196.165 7.04366 198.983 6.07275 202.593 6.07275C205.842 6.07275 208.372 7.0288 210.109 8.90696C211.77 10.7161 212.612 13.2321 212.612 16.392V16.8652H196.438C196.617 19.9625 198.57 21.4683 202.398 21.4683C203.896 21.4683 205.195 21.0969 206.258 20.3594C207.11 19.762 207.569 19.1593 207.621 18.5768L207.659 18.1439H212.409L212.314 18.702C212.191 19.3705 211.836 20.1281 211.254 20.9526C210.453 22.0922 209.398 23.0005 208.121 23.6563C206.538 24.4606 204.439 24.8702 201.876 24.8702Z" fill="#317AA6"/>
<path fill-rule="evenodd" clip-rule="evenodd" d="M245.162 24.292H240.163V10.0336C240.163 9.9278 240.178 9.13798 240.212 7.66842C240.222 7.19068 240.231 6.74821 240.239 6.33459L232.436 24.0067L232.314 24.292H227.545L227.42 24.0067L219.614 6.39018C219.621 6.78562 219.624 7.20672 219.631 7.6588C219.652 9.11768 219.663 9.90108 219.663 10.0101V24.292H214.663V8.63798e-07H221.442L221.571 0.2875L229.964 19.1321L238.447 8.63798e-07H245.162V24.292Z" fill="#317AA6"/>
<path fill-rule="evenodd" clip-rule="evenodd" d="M251.298 13.6573H262.591C262.175 10.9087 260.318 9.56947 256.942 9.56947C255.35 9.56947 254.032 10.0311 252.903 10.9745C251.95 11.7768 251.42 12.6587 251.298 13.6573ZM256.714 24.8702C253.568 24.8702 251.008 24.0244 249.107 22.3615C247.269 20.724 246.336 18.5654 246.336 15.9378C246.336 13.0439 247.253 10.6933 249.054 8.95185C251.006 7.04165 253.823 6.07275 257.431 6.07275C260.683 6.07275 263.21 7.02679 264.947 8.90515C266.61 10.7124 267.451 13.2307 267.451 16.391V16.8643H251.283C251.458 19.962 253.411 21.468 257.236 21.468C258.733 21.468 260.033 21.0965 261.098 20.3589C261.947 19.7594 262.405 19.1587 262.457 18.576L262.497 18.1431H267.244L267.149 18.7013C267.026 19.3783 266.683 20.1148 266.095 20.9521C265.29 22.0897 264.236 23.0002 262.959 23.6561C261.376 24.4606 259.275 24.8702 256.714 24.8702Z" fill="#317AA6"/>
<path fill-rule="evenodd" clip-rule="evenodd" d="M272.998 13.6586H284.295C283.877 10.9103 282.025 9.57121 278.646 9.57121C277.078 9.57121 275.719 10.0455 274.607 10.9761C273.655 11.7783 273.124 12.6601 272.998 13.6586ZM278.42 24.8702C275.271 24.8702 272.714 24.0277 270.809 22.3617C268.971 20.7266 268.038 18.5662 268.038 15.9388C268.038 13.0453 268.955 10.6949 270.756 8.95364C272.708 7.04366 275.527 6.07275 279.134 6.07275C282.387 6.07275 284.915 7.02668 286.651 8.90696C288.311 10.714 289.153 13.2321 289.153 16.392V16.8652H272.983C273.161 19.9625 275.113 21.4683 278.938 21.4683C280.44 21.4683 281.737 21.0969 282.8 20.3594C283.652 19.762 284.109 19.1615 284.16 18.5768L284.199 18.1439H288.951L288.854 18.702C288.732 19.379 288.387 20.1154 287.8 20.9526C286.995 22.0901 285.937 23.0005 284.665 23.6563C283.081 24.4606 280.98 24.8702 278.42 24.8702Z" fill="#317AA6"/>
<path fill-rule="evenodd" clip-rule="evenodd" d="M296.666 24.8702C294.794 24.8702 293.479 24.4788 292.653 23.683C291.977 22.9917 291.645 21.9953 291.645 20.7131V9.87658H288.564V6.52286H291.645V1.7349H296.389V6.52286H300V9.87658H296.389V20.5481C296.389 20.7875 296.389 21.413 298.19 21.413H300V24.6081L299.547 24.6373C297.375 24.7925 296.813 24.8443 296.722 24.8572L296.686 24.8616L296.666 24.8702Z" fill="#317AA6"/>
</g>
<defs>
<clipPath id="clip0_2154_1095">
<rect width="300" height="31" fill="white"/>
</clipPath>
</defs>
</svg>
